# xmcd CD database file
#
# Track frame offsets:
#	150
#	12632
#	31056
#	46261
#	60180
#	75590
#	93543
#	107698
#	122690
#	136991
#	151013
#	169891
#	187329
#	204825
#	218021
#	236607
#	249716
#	298952
#	312383
#	327340
#
# Disc length: 4620 seconds
#
# Revision: 0
# Processed by: cddbd v1.5.2PL0 Copyright (c) Steve Scherf et al.
# Submitted via: CDex 1.78
#
DISCID=17120a14
DTITLE=Buddy Rich - Strike it, rich! - Quiet Riot
DYEAR=1946
DGENRE=Jazz
TTITLE0=Jim jam stomp
TTITLE1=The carioca
TTITLE2=One o'clock jump
TTITLE3=Well, git it!
TTITLE4=Your father's moustache
TTITLE5=I want to be happy
TTITLE6=Cool breeze
TTITLE7=Dateless brown
TTITLE8=Desperate Desmond
TTITLE9=From rags to riches
TTITLE10=Quiet riot
TTITLE11=Poontang
TTITLE12=Just you, just me
TTITLE13=Great moments
TTITLE14=Feather merchant
TTITLE15=A little handicap
TTITLE16=Jatp blues
TTITLE17=Oop bop sh'bam
TTITLE18=That's Rich
TTITLE19=Budella (Blue Skies)
EXTD=YEAR: 1946
EXTT0=
EXTT1=
EXTT2=
EXTT3=
EXTT4=
EXTT5=
EXTT6=
EXTT7=
EXTT8=
EXTT9=
EXTT10=
EXTT11=
EXTT12=
EXTT13=
EXTT14=
EXTT15=
EXTT16=
EXTT17=
EXTT18=
EXTT19=
PLAYORDER=
